<svg height="512pt" viewBox="0 0 512 512" width="512pt" xmlns="http://www.w3.org/2000/svg"><path d="m361 257c0 96.597656-50.097656 183-123 213.300781-7.800781 24.597657-30.601562 41.699219-57 41.699219s-49.199219-17.101562-57-41.699219c-72.902344-30.300781-124-116.703125-124-213.300781 0-96.601562 51.097656-185 124-215.300781 7.800781-24.597657 30.601562-41.699219 57-41.699219s49.199219 17.101562 57 41.699219c72.902344 30.300781 123 118.699219 123 215.300781zm0 0" fill="#ff9f00"/><path d="m361 257c0 96.597656-50.097656 183-123 213.300781-7.800781 24.597657-30.601562 41.699219-57 41.699219v-512c26.398438 0 49.199219 17.101562 57 41.699219 72.902344 30.300781 123 118.699219 123 215.300781zm0 0" fill="#ff7816"/><path d="m331 152c-99.300781 0-180 80.699219-180 180s80.699219 180 180 180 181-80.699219 181-180-81.699219-180-181-180zm0 0" fill="#fdbf00"/><path d="m331 212c-66.300781 0-120 53.699219-120 120s53.699219 120 120 120 120-53.699219 120-120-53.699219-120-120-120zm0 0" fill="#ffe470"/><path d="m512 332c0 99.300781-81.699219 180-181 180v-360c99.300781 0 181 80.699219 181 180zm0 0" fill="#ff9f00"/><path d="m451 332c0 66.300781-53.699219 120-120 120v-240c66.300781 0 120 53.699219 120 120zm0 0" fill="#ffd400"/><path d="m482 332c0 8.398438-7.597656 15-16 15h-98.699219l78.601563 78.601562c5.699218 6 5.699218 15.296876 0 21.296876-6 5.699218-15.300782 5.699218-21.300782 0l-78.601562-78.597657v98.699219c0 8.398438-6.597656 15-15 15s-15-6.601562-15-15v-98.699219l-78.601562 78.597657c-6 5.699218-15.296876 5.699218-21.300782 0-5.699218-6-5.699218-15.296876 0-21.296876l78.601563-78.601562h-98.699219c-8.402344 0-15-6.601562-15-15 0-8.402344 6.597656-15 15-15h98.699219l-78.601563-78.601562c-5.699218-6-5.699218-15.296876 0-21.300782 6-5.699218 15.300782-5.699218 21.300782 0l78.601562 78.601563v-98.699219c0-8.402344 6.597656-15 15-15s15 6.597656 15 15v98.699219l78.601562-78.601563c6-5.699218 15.296876-5.699218 21.300782 0 5.699218 6 5.699218 15.300782 0 21.300782l-78.601563 78.601562h98.699219c8.402344 0 16 6.597656 16 15zm0 0" fill="#fdbf00"/><path d="m482 332c0 8.398438-7.597656 15-16 15h-98.699219l78.601563 78.601562c5.699218 6 5.699218 15.296876 0 21.296876-6 5.699218-15.300782 5.699218-21.300782 0l-78.601562-78.597657v98.699219c0 8.398438-6.597656 15-15 15v-300c8.402344 0 15 6.597656 15 15v98.699219l78.601562-78.601563c6-5.699218 15.296876-5.699218 21.300782 0 5.699218 6 5.699218 15.300782 0 21.300782l-78.601563 78.601562h98.699219c8.402344 0 16 6.597656 16 15zm0 0" fill="#ff9f00"/></svg>