<?xml version="1.0" standalone="no"?>
<!DOCTYPE svg PUBLIC "-//W3C//DTD SVG 20010904//EN"
 "http://www.w3.org/TR/2001/REC-SVG-20010904/DTD/svg10.dtd">
<svg version="1.0" xmlns="http://www.w3.org/2000/svg"
 width="700.000000pt" height="700.000000pt" viewBox="0 0 700.000000 700.000000"
 preserveAspectRatio="xMidYMid meet">
<metadata>
Created by potrace 1.11, written by Peter Selinger 2001-2013
</metadata>
<g transform="translate(0.000000,700.000000) scale(0.100000,-0.100000)"
fill="#000000" stroke="none">
<path d="M2320 6985 c-264 -53 -499 -244 -598 -487 -22 -56 -33 -71 -62 -84
-217 -104 -323 -168 -489 -299 -569 -447 -981 -1186 -1115 -2002 -42 -254 -50
-360 -50 -628 0 -217 4 -297 25 -465 11 -93 18 -137 24 -160 2 -8 7 -35 10
-60 3 -25 8 -53 11 -62 3 -9 7 -25 9 -35 3 -15 20 -84 49 -204 11 -43 77 -243
100 -304 136 -351 314 -659 533 -924 48 -57 274 -286 328 -331 145 -122 343
-249 509 -327 l88 -41 33 -77 c111 -255 352 -442 626 -485 89 -14 250 -7 329
14 155 41 328 153 425 275 28 35 57 71 65 82 14 18 17 17 76 -21 214 -137 566
-273 817 -315 17 -3 39 -8 47 -10 15 -4 59 -10 200 -25 122 -13 452 -5 575 14
663 102 1247 456 1643 995 208 282 375 662 427 971 3 19 8 42 10 50 5 18 13
78 25 187 15 138 5 483 -19 617 -64 361 -167 632 -349 920 -157 248 -341 450
-595 652 -72 58 -246 168 -360 228 -237 126 -591 235 -842 261 -33 3 -76 8
-95 10 -19 2 -44 4 -56 4 -16 1 -28 18 -54 79 -18 42 -60 129 -93 192 -289
554 -714 983 -1194 1205 -46 21 -83 43 -83 49 0 19 -67 154 -102 204 -45 66
-158 175 -226 219 -91 58 -170 91 -287 120 -47 12 -254 10 -315 -2z"/>
</g>
</svg>
